<mxfile host="app.diagrams.net" agent="Mozilla/5.0 (X11; Linux x86_64; rv:137.0) Gecko/20100101 Firefox/137.0" version="26.2.13">
  <diagram id="C5RBs43oDa-KdzZeNtuy" name="Page-1">
    <mxGraphModel dx="1500" dy="1077" grid="1" gridSize="10" guides="1" tooltips="1" connect="1" arrows="1" fold="1" page="1" pageScale="1" pageWidth="827" pageHeight="1169" math="0" shadow="0">
      <root>
        <mxCell id="WIyWlLk6GJQsqaUBKTNV-0" />
        <mxCell id="WIyWlLk6GJQsqaUBKTNV-1" parent="WIyWlLk6GJQsqaUBKTNV-0" />
        <mxCell id="WIyWlLk6GJQsqaUBKTNV-3" value="&lt;div&gt;Read general batteryparams&lt;/div&gt;" style="rounded=1;whiteSpace=wrap;html=1;fontSize=12;glass=0;strokeWidth=1;shadow=0;" parent="WIyWlLk6GJQsqaUBKTNV-1" vertex="1">
          <mxGeometry x="160" y="10" width="120" height="60" as="geometry" />
        </mxCell>
        <mxCell id="q4JDkEVtdoKc7ooOMmAg-17" style="edgeStyle=orthogonalEdgeStyle;rounded=0;orthogonalLoop=1;jettySize=auto;html=1;entryX=0.5;entryY=0;entryDx=0;entryDy=0;" edge="1" parent="WIyWlLk6GJQsqaUBKTNV-1" source="q4JDkEVtdoKc7ooOMmAg-0" target="q4JDkEVtdoKc7ooOMmAg-4">
          <mxGeometry relative="1" as="geometry" />
        </mxCell>
        <mxCell id="q4JDkEVtdoKc7ooOMmAg-0" value="Start listening for messages" style="rounded=1;whiteSpace=wrap;html=1;" vertex="1" parent="WIyWlLk6GJQsqaUBKTNV-1">
          <mxGeometry x="160" y="360" width="120" height="60" as="geometry" />
        </mxCell>
        <mxCell id="q4JDkEVtdoKc7ooOMmAg-13" value="Valsd data" style="edgeStyle=orthogonalEdgeStyle;rounded=0;orthogonalLoop=1;jettySize=auto;html=1;entryX=0.5;entryY=0;entryDx=0;entryDy=0;" edge="1" parent="WIyWlLk6GJQsqaUBKTNV-1" source="q4JDkEVtdoKc7ooOMmAg-1" target="q4JDkEVtdoKc7ooOMmAg-2">
          <mxGeometry relative="1" as="geometry">
            <mxPoint x="130" y="280" as="targetPoint" />
            <Array as="points">
              <mxPoint x="130" y="175" />
            </Array>
          </mxGeometry>
        </mxCell>
        <mxCell id="q4JDkEVtdoKc7ooOMmAg-14" value="Invalid data" style="edgeStyle=orthogonalEdgeStyle;rounded=0;orthogonalLoop=1;jettySize=auto;html=1;exitX=1;exitY=0.5;exitDx=0;exitDy=0;entryX=0.5;entryY=0;entryDx=0;entryDy=0;" edge="1" parent="WIyWlLk6GJQsqaUBKTNV-1" source="q4JDkEVtdoKc7ooOMmAg-1" target="q4JDkEVtdoKc7ooOMmAg-6">
          <mxGeometry relative="1" as="geometry" />
        </mxCell>
        <mxCell id="q4JDkEVtdoKc7ooOMmAg-1" value="Read previous &lt;br&gt;battery state" style="rhombus;whiteSpace=wrap;html=1;" vertex="1" parent="WIyWlLk6GJQsqaUBKTNV-1">
          <mxGeometry x="151.25" y="120" width="137.5" height="110" as="geometry" />
        </mxCell>
        <mxCell id="q4JDkEVtdoKc7ooOMmAg-16" style="edgeStyle=orthogonalEdgeStyle;rounded=0;orthogonalLoop=1;jettySize=auto;html=1;entryX=0;entryY=0.5;entryDx=0;entryDy=0;" edge="1" parent="WIyWlLk6GJQsqaUBKTNV-1" source="q4JDkEVtdoKc7ooOMmAg-2" target="q4JDkEVtdoKc7ooOMmAg-0">
          <mxGeometry relative="1" as="geometry" />
        </mxCell>
        <mxCell id="q4JDkEVtdoKc7ooOMmAg-2" value="Init EKF for&lt;br&gt; SoC" style="rounded=1;whiteSpace=wrap;html=1;" vertex="1" parent="WIyWlLk6GJQsqaUBKTNV-1">
          <mxGeometry x="70" y="270" width="120" height="60" as="geometry" />
        </mxCell>
        <mxCell id="q4JDkEVtdoKc7ooOMmAg-19" style="edgeStyle=orthogonalEdgeStyle;rounded=0;orthogonalLoop=1;jettySize=auto;html=1;entryX=0.5;entryY=0;entryDx=0;entryDy=0;" edge="1" parent="WIyWlLk6GJQsqaUBKTNV-1" source="q4JDkEVtdoKc7ooOMmAg-3" target="q4JDkEVtdoKc7ooOMmAg-5">
          <mxGeometry relative="1" as="geometry" />
        </mxCell>
        <mxCell id="q4JDkEVtdoKc7ooOMmAg-3" value="Make EKF step" style="rounded=1;whiteSpace=wrap;html=1;" vertex="1" parent="WIyWlLk6GJQsqaUBKTNV-1">
          <mxGeometry x="160" y="575" width="120" height="60" as="geometry" />
        </mxCell>
        <mxCell id="q4JDkEVtdoKc7ooOMmAg-18" style="edgeStyle=orthogonalEdgeStyle;rounded=0;orthogonalLoop=1;jettySize=auto;html=1;entryX=0.5;entryY=0;entryDx=0;entryDy=0;" edge="1" parent="WIyWlLk6GJQsqaUBKTNV-1" source="q4JDkEVtdoKc7ooOMmAg-4" target="q4JDkEVtdoKc7ooOMmAg-3">
          <mxGeometry relative="1" as="geometry" />
        </mxCell>
        <mxCell id="q4JDkEVtdoKc7ooOMmAg-4" value="Collect data" style="rounded=1;whiteSpace=wrap;html=1;" vertex="1" parent="WIyWlLk6GJQsqaUBKTNV-1">
          <mxGeometry x="160" y="470" width="120" height="60" as="geometry" />
        </mxCell>
        <mxCell id="q4JDkEVtdoKc7ooOMmAg-20" style="edgeStyle=orthogonalEdgeStyle;rounded=0;orthogonalLoop=1;jettySize=auto;html=1;entryX=0;entryY=0.5;entryDx=0;entryDy=0;" edge="1" parent="WIyWlLk6GJQsqaUBKTNV-1" source="q4JDkEVtdoKc7ooOMmAg-5" target="q4JDkEVtdoKc7ooOMmAg-7">
          <mxGeometry relative="1" as="geometry" />
        </mxCell>
        <mxCell id="q4JDkEVtdoKc7ooOMmAg-5" value="Fill-up and send&lt;br&gt;bms message" style="rounded=1;whiteSpace=wrap;html=1;" vertex="1" parent="WIyWlLk6GJQsqaUBKTNV-1">
          <mxGeometry x="160" y="735" width="120" height="60" as="geometry" />
        </mxCell>
        <mxCell id="q4JDkEVtdoKc7ooOMmAg-15" style="edgeStyle=orthogonalEdgeStyle;rounded=0;orthogonalLoop=1;jettySize=auto;html=1;entryX=1;entryY=0.5;entryDx=0;entryDy=0;" edge="1" parent="WIyWlLk6GJQsqaUBKTNV-1" source="q4JDkEVtdoKc7ooOMmAg-6" target="q4JDkEVtdoKc7ooOMmAg-0">
          <mxGeometry relative="1" as="geometry" />
        </mxCell>
        <mxCell id="q4JDkEVtdoKc7ooOMmAg-6" value="Init EKF for&lt;br&gt;RQ" style="rounded=1;whiteSpace=wrap;html=1;" vertex="1" parent="WIyWlLk6GJQsqaUBKTNV-1">
          <mxGeometry x="250" y="270" width="120" height="60" as="geometry" />
        </mxCell>
        <mxCell id="q4JDkEVtdoKc7ooOMmAg-21" value="Time to run RQ EKF" style="edgeStyle=orthogonalEdgeStyle;rounded=0;orthogonalLoop=1;jettySize=auto;html=1;exitX=0.5;exitY=0;exitDx=0;exitDy=0;entryX=0.5;entryY=1;entryDx=0;entryDy=0;" edge="1" parent="WIyWlLk6GJQsqaUBKTNV-1" source="q4JDkEVtdoKc7ooOMmAg-7" target="q4JDkEVtdoKc7ooOMmAg-10">
          <mxGeometry x="0.0133" relative="1" as="geometry">
            <mxPoint as="offset" />
          </mxGeometry>
        </mxCell>
        <mxCell id="q4JDkEVtdoKc7ooOMmAg-22" value="Finished RQ estimation" style="edgeStyle=orthogonalEdgeStyle;rounded=0;orthogonalLoop=1;jettySize=auto;html=1;exitX=1;exitY=0.5;exitDx=0;exitDy=0;entryX=0.5;entryY=1;entryDx=0;entryDy=0;" edge="1" parent="WIyWlLk6GJQsqaUBKTNV-1" source="q4JDkEVtdoKc7ooOMmAg-7" target="q4JDkEVtdoKc7ooOMmAg-9">
          <mxGeometry relative="1" as="geometry" />
        </mxCell>
        <mxCell id="q4JDkEVtdoKc7ooOMmAg-28" value="Do nothing" style="edgeStyle=orthogonalEdgeStyle;rounded=0;orthogonalLoop=1;jettySize=auto;html=1;" edge="1" parent="WIyWlLk6GJQsqaUBKTNV-1" source="q4JDkEVtdoKc7ooOMmAg-7">
          <mxGeometry relative="1" as="geometry">
            <mxPoint x="220" y="440" as="targetPoint" />
            <Array as="points">
              <mxPoint x="485" y="860" />
              <mxPoint x="71" y="860" />
            </Array>
          </mxGeometry>
        </mxCell>
        <mxCell id="q4JDkEVtdoKc7ooOMmAg-7" value="Running EKF state" style="rhombus;whiteSpace=wrap;html=1;" vertex="1" parent="WIyWlLk6GJQsqaUBKTNV-1">
          <mxGeometry x="420" y="710" width="130" height="110" as="geometry" />
        </mxCell>
        <mxCell id="q4JDkEVtdoKc7ooOMmAg-27" style="edgeStyle=orthogonalEdgeStyle;rounded=0;orthogonalLoop=1;jettySize=auto;html=1;entryX=0.5;entryY=1;entryDx=0;entryDy=0;" edge="1" parent="WIyWlLk6GJQsqaUBKTNV-1" source="q4JDkEVtdoKc7ooOMmAg-9" target="q4JDkEVtdoKc7ooOMmAg-25">
          <mxGeometry relative="1" as="geometry" />
        </mxCell>
        <mxCell id="q4JDkEVtdoKc7ooOMmAg-9" value="Update EKF for&lt;br&gt; SoC state" style="rounded=1;whiteSpace=wrap;html=1;" vertex="1" parent="WIyWlLk6GJQsqaUBKTNV-1">
          <mxGeometry x="580" y="570" width="120" height="60" as="geometry" />
        </mxCell>
        <mxCell id="q4JDkEVtdoKc7ooOMmAg-23" style="edgeStyle=orthogonalEdgeStyle;rounded=0;orthogonalLoop=1;jettySize=auto;html=1;entryX=0.5;entryY=1;entryDx=0;entryDy=0;" edge="1" parent="WIyWlLk6GJQsqaUBKTNV-1" source="q4JDkEVtdoKc7ooOMmAg-10" target="q4JDkEVtdoKc7ooOMmAg-11">
          <mxGeometry relative="1" as="geometry" />
        </mxCell>
        <mxCell id="q4JDkEVtdoKc7ooOMmAg-10" value="Update EKF for&lt;br&gt;RQ state" style="rounded=1;whiteSpace=wrap;html=1;" vertex="1" parent="WIyWlLk6GJQsqaUBKTNV-1">
          <mxGeometry x="425" y="575" width="120" height="60" as="geometry" />
        </mxCell>
        <mxCell id="q4JDkEVtdoKc7ooOMmAg-24" style="edgeStyle=orthogonalEdgeStyle;rounded=0;orthogonalLoop=1;jettySize=auto;html=1;" edge="1" parent="WIyWlLk6GJQsqaUBKTNV-1" source="q4JDkEVtdoKc7ooOMmAg-11">
          <mxGeometry relative="1" as="geometry">
            <mxPoint x="220" y="440" as="targetPoint" />
            <Array as="points">
              <mxPoint x="485" y="440" />
            </Array>
          </mxGeometry>
        </mxCell>
        <mxCell id="q4JDkEVtdoKc7ooOMmAg-11" value="Run RQ EKF" style="rounded=1;whiteSpace=wrap;html=1;" vertex="1" parent="WIyWlLk6GJQsqaUBKTNV-1">
          <mxGeometry x="425" y="470" width="120" height="60" as="geometry" />
        </mxCell>
        <mxCell id="q4JDkEVtdoKc7ooOMmAg-12" style="edgeStyle=orthogonalEdgeStyle;rounded=0;orthogonalLoop=1;jettySize=auto;html=1;exitX=0.5;exitY=1;exitDx=0;exitDy=0;entryX=0.5;entryY=0;entryDx=0;entryDy=0;" edge="1" parent="WIyWlLk6GJQsqaUBKTNV-1" source="WIyWlLk6GJQsqaUBKTNV-3" target="q4JDkEVtdoKc7ooOMmAg-1">
          <mxGeometry relative="1" as="geometry" />
        </mxCell>
        <mxCell id="q4JDkEVtdoKc7ooOMmAg-26" style="edgeStyle=orthogonalEdgeStyle;rounded=0;orthogonalLoop=1;jettySize=auto;html=1;" edge="1" parent="WIyWlLk6GJQsqaUBKTNV-1" source="q4JDkEVtdoKc7ooOMmAg-25">
          <mxGeometry relative="1" as="geometry">
            <mxPoint x="220" y="440" as="targetPoint" />
            <Array as="points">
              <mxPoint x="640" y="440" />
            </Array>
          </mxGeometry>
        </mxCell>
        <mxCell id="q4JDkEVtdoKc7ooOMmAg-25" value="Run SoC EKF" style="rounded=1;whiteSpace=wrap;html=1;" vertex="1" parent="WIyWlLk6GJQsqaUBKTNV-1">
          <mxGeometry x="580" y="470" width="120" height="60" as="geometry" />
        </mxCell>
      </root>
    </mxGraphModel>
  </diagram>
</mxfile>
